<?xml version="1.0" encoding="utf-8"?>
<!-- Generator: Adobe Illustrator 28.0.0, SVG Export Plug-In . SVG Version: 6.00 Build 0)  -->
<svg version="1.1" id="Capa_1" xmlns="http://www.w3.org/2000/svg" xmlns:xlink="http://www.w3.org/1999/xlink" x="0px" y="0px"
	 viewBox="0 0 1366.4 322.8" style="enable-background:new 0 0 1366.4 322.8;" xml:space="preserve">
<style type="text/css">
	.st0{fill:#FF69B4;}
	.st1{fill:#00FFFF;}
</style>
<g>
	<path class="st0" d="M1336.5,232.2c-34,6.4-58.9-4.4-72.7-37.5c-2.4-5.7-7.4-10.2-14.3-19.6c0,16-0.9,27.6,0.2,39.1
		c1.2,12.9-1.7,19.5-16.5,18.9c-13.4-0.6-23.6-1.1-23-19.3c1-34.6,0.4-69.3,0.2-103.9c-0.1-15-0.4-30-1.1-44.9
		c-0.4-8.5,1.4-15.5,8.7-20.6c5.8,0,11.6,0,17.4,0c10.9,4,15.4,11.2,14.2,23.3c-1.1,10.9-0.2,21.9-0.2,32.9c0,19.1,0,38.2,0,57.3
		c13.2-14.1,21.3-29.6,32.2-42.9c13.8-16.7,32.6-5,53-8.7c-14.6,19-26,34.2-37.8,49.1c-4.8,6-7.6,11.4-2.1,18.5
		c14.1,18.2,27.9,36.6,41.8,54.9C1336.5,229.9,1336.5,231.1,1336.5,232.2z"/>
	<path class="st1" d="M36.5,124.4c3.5-0.8,3.7-4,4.5-6.7C58.4,60.1,115.6,46,164.7,58.1c8.9,2.2,16.1,30.7,9.3,36.9
		c-4.7,4.3-9.7-0.2-14.5-1.5c-24.9-7.1-48.1-7.2-66.8,14.4c-14.4,16.6-17.7,45.4-7,65.1c11.4,21,32.4,30.6,57.2,26.2
		c3.4-0.6,6.9-2.1,10.2-1.8c7.4,0.9,17.9-13.2,21.7,1.6c5.7,22.4,0.8,29-18.2,33c-19.5,4.1-38.8,5.3-58.5,0.4
		c-26.6-6.7-45.3-22-55.4-47.8c-1.6-4-1.3-9.4-6.3-11.6C36.5,156.8,36.5,140.6,36.5,124.4z"/>
	<path class="st0" d="M639.9,186.9c20.2,9.7,37.9,20.1,59.4,14.8c7.5-1.9,15-3.3,17-12.3c2-9.5-3.1-15.6-10.8-19.6
		c-11.8-6.1-24.1-11.2-35.9-17.3c-22.5-11.7-32.7-29.3-30.5-51.7c2.1-20.8,15.8-35.3,40-42.7c17.7-5.3,35.6-4.9,53.4-2.2
		C752.9,59,755.9,64,754,85.2c-0.9,10.3-4.5,13.6-14.5,8.3c-13.2-6.9-27.4-8.8-42-4.9c-7,1.9-13.5,4.9-15,12.7
		c-1.5,8,3.5,13.3,9.9,16.7c11.2,6,22.8,11.2,34.2,16.9c25.3,12.7,37,31.6,34.1,54.9c-2.9,23.3-16.8,36.1-45.5,43.2
		c-18.5,4.6-36.6,2.5-55.1-0.5c-15.3-2.5-22.9-9.2-20.3-25.4C640.7,201.4,639.9,195.5,639.9,186.9z"/>
	<path class="st1" d="M477.7,71.6c0-11-0.9-21.6-12.5-27.2c-5.8,0-11.6,0-17.4,0c-7.5,3.9-11.5,9-10.8,18.7
		c1.1,16.5,0.3,33.2,0.3,50.4c-3-0.4-5-0.1-6.2-0.9c-30.5-19.8-63-3-75.5,18.1c-16.9,28.5-11.4,77.8,11.3,94.6
		c4.1,3.1,9,5.4,13.8,7.1c20.6,7.5,38.6,2,54.7-12.9c4.9,21.6,21.4,11.6,32.5,12.5c12.3,1.1,9.7-10.7,9.7-18.1
		C477.9,166.5,477.7,119.1,477.7,71.6z M408.7,204.3c-16.4-1.9-25.6-20.3-21.4-42.8c3.5-18.7,13.6-28.2,28.2-26.6
		c14.3,1.6,22.3,13.2,21.9,32.1C436.9,192.2,426.1,206.2,408.7,204.3z"/>
	<path class="st0" d="M913.1,142.3c-7.8-28.1-31-43.2-57.5-38c-11.6,2.2-20.3,10.1-30.3,15.7c-2.8-21-18.4-11.8-28.7-13.4
		c-10.4-1.6-12.7,5.9-12.7,14.2c0,49.1-0.1,98.2,0.3,147.4c0.1,8.3,0.3,17.5,8.7,23.2c8.1,0,16.3,0,24.4,0
		c7.3-3.9,7.2-10.6,7.1-17.6c-0.2-16.5-0.1-32.9-0.1-50.7c8,3.3,13.7,6.1,19.6,8c29.9,9.7,56.3-3.1,67-32.6
		C917.4,180.2,918.3,161.3,913.1,142.3z M874.9,175c-3.7,20.1-13.3,30.4-27.8,29.2c-14.5-1.2-20.9-10.6-22.7-24
		c-0.5-3.4-0.1-6.9-0.1-8.8c-0.3-8.5-0.2-15.3,3.2-21.7c6.6-12.1,16.6-17.6,30.1-13.9C871,139.6,878.2,156.9,874.9,175z"/>
	<path class="st1" d="M263.4,104c-43.8-0.1-70,24.4-70.4,65.7c-0.4,40.1,25.2,65.3,66.5,65.5c44,0.3,69.7-23.9,69.8-65.8
		C329.4,128.3,305,104.1,263.4,104z M262.2,204.4c-18.1-0.1-28.3-12.2-28.5-33.7c-0.1-22.4,10.4-35.7,28.3-35.8
		c17.8-0.1,26.8,11.4,26.7,34.5C288.6,192.5,279.5,204.5,262.2,204.4z"/>
	<path class="st0" d="M1180,210.3c1.5-9.1,1.5-18.4,2.2-27.9c-0.9-13.1-1.4-26.4-2.9-39.6c-1.9-16.1-10.1-28.2-25.7-34.3
		c-23.1-9-45.9-4.9-68,3.1c-12.7,4.7-8,17.7-5.7,25.9c2.4,8.8,9.7,0.5,14.1-0.9c13.4-4.1,26.5-8.9,40.4-2.2
		c4.5,2.2,7.4,5.7,7.2,10.9c-0.2,7-5.8,5.8-10.2,6.4c-10.3,1.5-20.8,2.5-31,4.6c-19.2,4-31.6,15.9-34,32.7
		c-2.2,15.8,0.6,30.7,15.2,39.8c15.5,9.7,31.7,9.1,47.9,0.4c3.5-1.8,6.7-10.6,12.1-3.5c9.5,12.4,22.7,6.9,33.2,5.4
		C1185.5,229.6,1178.8,217.6,1180,210.3z M1120.3,206.1c-9,0.2-17.4-2.7-16.8-12.9c1-19.6,18.5-14.7,29.3-18.3
		c6.8-0.8,11.1,0.4,11.1,7.8C1143.8,194.1,1132.5,205.8,1120.3,206.1z"/>
	<path class="st1" d="M552.3,180.1c9.3,0.2,18.5,0,27.8,0c0,0.1,0,0.1,0,0.2c7.5,0,15.2-0.9,22.6,0.2c18.5,2.8,21.6-6.8,20.1-22.1
		c-2.8-29.8-22.9-51.6-51.2-54.7c-29.8-3.3-58.6,15-67.8,43c-10.2,30.8,0.8,67.1,24.5,80c23.5,12.8,48,10.9,72.5,3.6
		c13.2-3.9,11.6-15.4,9.5-24.5c-2.5-10.5-10.1-1.9-15.4-1.7c-6.3,0.3-12.7,1.4-19,1.6c-11.8,0.4-23.6-0.1-30.8-11.6
		C539.8,185.7,540,179.8,552.3,180.1z M565.3,131.4c10.3,0.4,19.1,6.1,18.3,16.9c-1.3,16.1-15.5,2.6-22.1,8.9
		c-5.7-5.7-19.5,5.6-18.7-8C543.5,139.1,553.2,130.9,565.3,131.4z"/>
	<path class="st0" d="M1018.9,107.2c-27.9-10.1-62.1,1-76.9,24.8c-15.5,25.1-13.1,64.6,5.2,84.8c17.2,19,61.8,25.5,86.5,12.9
		c10.9-5.6,10-15.4,7.5-24.1c-3.1-10.6-10.4-1.5-15.8-1.3c-4.6,0.2-9.2,1.4-13.8,1.3c-12-0.2-24.8,2.1-33.6-9.4
		c-2.9-3.8-5.6-7.8-3.7-12.7c2-5.2,6.9-2.8,10.7-2.9c8.7-0.2,17.4-0.1,26.1-0.1c0-0.1,0-0.2,0-0.4c11,0,22-0.2,33.1,0.1
		c6.6,0.1,8.8-2.6,9.7-9.1C1057.2,144.1,1041.9,115.5,1018.9,107.2z M1007.1,155.9c-7.5-0.3-15.1,0-22.6-0.2
		c-3.7-0.1-8.6,2.2-10.5-3.1c-1.6-4.3,1.3-7.7,3.6-11c0.6-0.8,1.2-1.6,1.8-2.3c4.3-5.2,9.8-8.3,17.1-8c7.1,0.1,12,3.1,15.3,8.1
		c1.1,1.7,2,3.5,2.8,5.6C1017.1,151.5,1015.8,156.2,1007.1,155.9z"/>
</g>
</svg>
